<?xml version="1.0" encoding="UTF-8" standalone="no"?>
<!DOCTYPE svg PUBLIC "-//W3C//DTD SVG 1.1//EN" "http://www.w3.org/Graphics/SVG/1.1/DTD/svg11.dtd">
<svg xmlns="http://www.w3.org/2000/svg" version="1.1" viewBox="0.00 0.00 1460.00 228.00">
<g stroke-width="2.00" fill="none" stroke-linecap="butt">
<path stroke="#bcc9b9" vector-effect="non-scaling-stroke" d="
  M 134.82 43.44
  C 134.89 43.43 134.95 43.49 134.95 43.55
  L 138.70 92.09
  C 138.73 92.45 139.20 92.56 139.38 92.25
  C 146.76 79.74 156.35 69.27 168.14 60.84
  C 168.64 60.48 168.84 59.83 168.64 59.25
  C 162.59 41.64 149.45 25.10 135.50 11.75
  C 135.18 11.44 134.67 11.44 134.35 11.75
  C 120.41 24.94 107.74 41.08 101.45 59.19
  C 101.25 59.75 101.43 60.38 101.90 60.76
  C 108.07 65.72 111.44 68.18 115.45 72.37
  C 120.77 77.93 125.63 84.43 130.04 91.86
  C 130.38 92.44 131.26 92.23 131.30 91.56
  L 134.50 43.47
  C 134.50 43.46 134.50 43.46 134.51 43.46
  L 134.82 43.44"
/>
<path stroke="#8e9eb0" vector-effect="non-scaling-stroke" d="
  M 107.81 188.13
  C 107.92 188.21 107.96 188.36 107.90 188.48
  C 107.84 188.61 107.69 188.67 107.56 188.62
  C 82.31 179.79 56.50 176.70 30.11 179.35
  C 29.81 179.38 29.55 179.15 29.55 178.85
  L 29.55 69.03
  C 29.55 68.88 29.43 68.76 29.28 68.76
  L 20.35 68.76
  C 20.26 68.76 20.18 68.84 20.18 68.94
  L 20.18 188.97
  C 20.18 189.32 20.49 189.59 20.83 189.54
  C 47.26 186.06 76.69 187.56 101.27 196.00
  C 109.51 198.83 119.31 203.50 130.66 210.01
  C 133.68 211.74 135.60 212.38 138.46 210.70
  C 154.84 201.09 171.19 194.01 190.29 190.59
  C 209.63 187.13 229.12 186.79 248.77 189.58
  C 249.13 189.63 249.45 189.36 249.45 189.00
  L 249.45 69.36
  C 249.45 69.16 249.28 68.99 249.08 68.99
  L 232.30 68.99
  C 232.02 68.99 231.79 68.76 231.79 68.48
  L 231.79 51.29
  C 231.79 51.06 231.61 50.88 231.38 50.88
  C 213.39 51.00 195.32 54.57 179.31 62.79
  C 178.65 63.13 178.31 63.88 178.50 64.59
  L 180.33 71.63
  C 180.49 72.26 181.21 72.55 181.76 72.21
  C 193.43 65.09 208.51 61.60 221.96 60.52
  C 222.28 60.49 222.55 60.75 222.55 61.07
  L 222.55 159.75
  C 222.55 160.13 222.26 160.44 221.88 160.46
  C 207.02 161.54 193.07 163.97 178.99 169.24
  C 164.26 174.76 151.25 183.02 139.98 194.03
  C 139.76 194.24 139.39 194.08 139.40 193.78
  C 139.72 180.27 139.74 168.09 139.45 157.26
  C 138.81 133.70 133.08 108.19 119.56 88.88
  C 100.91 62.25 70.07 50.56 38.19 50.94
  C 37.99 50.94 37.82 51.11 37.82 51.31
  L 37.82 169.15
  C 37.82 169.44 38.05 169.67 38.34 169.66
  C 62.45 169.33 88.02 174.54 107.81 188.13"
/>
<path stroke="#bcc9b9" vector-effect="non-scaling-stroke" d="
  M 171.40 68.22
  C 168.53 69.94 165.65 72.12 162.75 74.77
  C 153.24 83.46 145.66 94.62 139.99 108.27
  C 139.17 110.24 138.94 111.81 139.29 113.00
  C 143.36 126.56 145.70 140.09 146.31 153.59
  C 146.34 154.24 147.15 154.52 147.58 154.03
  C 152.99 147.80 157.75 141.58 161.87 135.35
  C 170.87 121.74 176.71 103.99 175.19 87.50
  C 174.58 80.87 173.57 74.55 172.16 68.54
  C 172.08 68.20 171.70 68.04 171.40 68.22"
/>
<path stroke="#9d9d9d" vector-effect="non-scaling-stroke" d="
  M 1293.0175 81.6041
  C 1292.84 85.75 1296.24 89.27 1300.6120 89.4628
  C 1304.99 89.65 1308.68 86.45 1308.8625 82.2959
  C 1309.04 78.15 1305.64 74.63 1301.2680 74.4372
  C 1296.89 74.25 1293.20 77.45 1293.0175 81.6041"
/>
<path stroke="#8e9eb0" vector-effect="non-scaling-stroke" d="
  M 281.56 134.08
  C 282.59 153.01 297.87 160.73 314.90 160.85
  C 322.93 160.90 330.76 159.95 337.57 156.02
  C 346.83 150.67 350.52 142.39 348.65 131.18
  C 346.94 120.88 336.40 114.86 327.36 112.63
  C 318.51 110.45 313.46 109.17 312.21 108.78
  C 309.04 107.81 306.67 106.69 305.10 105.44
  C 302.06 103.03 301.70 98.62 303.89 95.46
  C 307.25 90.62 316.58 90.35 321.61 91.60
  C 326.50 92.81 329.48 95.74 330.71 100.53
  C 330.83 101.01 331.27 101.35 331.76 101.35
  L 347.26 101.35
  C 347.67 101.35 348.00 100.99 347.96 100.58
  C 346.58 86.15 336.30 78.09 322.40 76.36
  C 305.87 74.30 286.10 80.13 284.28 99.19
  C 283.02 112.32 293.25 119.83 304.39 122.90
  C 306.46 123.47 311.73 124.76 320.22 126.77
  C 322.71 127.36 324.96 128.36 326.97 129.79
  C 330.46 132.26 331.75 136.54 329.44 140.22
  C 325.79 146.01 316.52 146.57 310.56 145.16
  C 304.31 143.67 300.62 139.84 299.47 133.65
  C 299.42 133.42 299.22 133.25 298.98 133.25
  L 282.35 133.25
  C 281.90 133.25 281.54 133.63 281.56 134.08"
/>
<path stroke="#8e9eb0" vector-effect="non-scaling-stroke" d="
  M 481.87 128.97
  L 498.18 128.97
  C 498.73 128.97 499.14 129.47 499.03 130.01
  C 498.32 133.62 497.00 136.61 495.09 138.96
  C 489.33 146.04 478.45 146.86 470.65 142.93
  C 463.89 139.53 459.93 132.11 458.99 124.51
  C 457.48 112.15 460.07 97.19 473.76 92.80
  C 483.56 89.66 493.55 93.61 497.42 103.40
  C 497.55 103.71 497.85 103.92 498.19 103.92
  L 515.69 103.92
  C 516.00 103.92 516.23 103.64 516.16 103.34
  C 511.96 84.08 496.00 74.88 477.25 76.09
  C 461.25 77.13 448.69 86.24 443.22 101.09
  C 439.43 111.39 439.26 124.49 442.87 134.89
  C 446.41 145.10 452.77 152.47 461.96 157.00
  C 470.35 161.15 481.50 161.84 490.35 159.83
  C 504.06 156.71 512.56 148.41 515.84 134.92
  C 517.11 129.71 516.86 122.91 516.81 116.21
  C 516.81 115.83 516.51 115.53 516.13 115.53
  L 481.75 115.53
  C 481.42 115.53 481.16 115.79 481.16 116.12
  L 481.16 128.26
  C 481.16 128.65 481.48 128.97 481.87 128.97"
/>
<path stroke="#8e9eb0" vector-effect="non-scaling-stroke" d="
  M 417.29 159.29
  C 417.39 159.55 417.64 159.73 417.92 159.73
  L 436.05 159.73
  C 436.52 159.73 436.84 159.27 436.68 158.83
  L 406.79 77.57
  C 406.69 77.31 406.44 77.13 406.16 77.13
  L 383.98 77.13
  C 383.70 77.13 383.45 77.31 383.35 77.57
  L 354.17 158.84
  C 354.02 159.28 354.34 159.74 354.80 159.74
  L 372.57 159.74
  C 372.85 159.74 373.10 159.56 373.20 159.30
  L 379.61 141.45
  C 379.71 141.19 379.96 141.01 380.24 141.01
  L 410.09 141.01
  C 410.37 141.01 410.62 141.19 410.72 141.45
  L 417.29 159.29"
/>
<path stroke="#8e9eb0" vector-effect="non-scaling-stroke" d="
  M 529.46 159.25
  C 529.46 159.52 529.67 159.73 529.94 159.73
  L 586.73 159.73
  C 587.00 159.73 587.21 159.52 587.21 159.25
  L 587.21 145.35
  C 587.21 145.08 587.00 144.87 586.73 144.87
  L 548.00 144.87
  C 547.73 144.87 547.52 144.66 547.52 144.39
  L 547.52 125.91
  C 547.52 125.64 547.73 125.43 548.00 125.43
  L 583.33 125.43
  C 583.60 125.43 583.81 125.22 583.81 124.95
  L 583.81 111.18
  C 583.81 110.91 583.60 110.70 583.33 110.70
  L 547.95 110.70
  C 547.68 110.70 547.47 110.49 547.47 110.22
  L 547.47 92.18
  C 547.47 91.91 547.68 91.70 547.95 91.70
  L 586.45 91.70
  C 586.72 91.70 586.93 91.49 586.93 91.22
  L 586.93 77.62
  C 586.93 77.35 586.72 77.14 586.45 77.14
  L 529.94 77.14
  C 529.67 77.14 529.46 77.35 529.46 77.62
  L 529.46 159.25"
/>
<path stroke="#9d9d9d" vector-effect="non-scaling-stroke" d="
  M 626.73 77.70
  L 626.45 159.12
  C 626.45 159.44 626.71 159.70 627.03 159.70
  L 657.67 159.81
  C 678.67 159.88 695.77 142.91 695.84 121.90
  L 695.86 115.40
  C 695.93 94.39 678.96 77.30 657.95 77.23
  L 627.31 77.12
  C 626.99 77.12 626.73 77.38 626.73 77.70"
/>
<path stroke="#9d9d9d" vector-effect="non-scaling-stroke" d="
  M 1141.03 108.71
  L 1149.75 108.71
  C 1150.10 108.71 1150.39 109.00 1150.39 109.35
  C 1150.38 131.78 1150.40 143.91 1150.45 145.73
  C 1150.72 155.18 1157.50 160.46 1166.46 160.61
  C 1170.41 160.68 1173.46 160.41 1175.59 159.79
  C 1176.24 159.60 1176.66 158.99 1176.61 158.31
  L 1175.99 150.19
  C 1175.95 149.70 1175.45 149.40 1175.00 149.58
  C 1174.01 149.98 1172.85 150.21 1171.50 150.27
  C 1162.16 150.69 1162.76 144.11 1162.81 136.38
  C 1162.84 132.47 1162.83 123.34 1162.78 109.01
  C 1162.78 108.78 1162.96 108.60 1163.18 108.60
  L 1175.75 108.60
  C 1175.97 108.60 1176.14 108.43 1176.14 108.22
  L 1176.14 99.25
  C 1176.14 99.06 1175.98 98.90 1175.79 98.90
  L 1163.26 98.90
  C 1163.00 98.90 1162.79 98.69 1162.79 98.43
  L 1162.79 83.31
  C 1162.79 83.04 1162.57 82.82 1162.30 82.82
  L 1150.67 82.82
  C 1150.47 82.82 1150.31 82.98 1150.31 83.18
  L 1150.31 98.44
  C 1150.31 98.70 1150.10 98.91 1149.84 98.91
  L 1141.07 98.91
  C 1140.90 98.91 1140.77 99.04 1140.77 99.20
  L 1140.77 108.46
  C 1140.77 108.60 1140.89 108.71 1141.03 108.71"
/>
<path stroke="#9d9d9d" vector-effect="non-scaling-stroke" d="
  M 1248.11 108.64
  L 1256.82 108.66
  C 1257.18 108.66 1257.46 108.95 1257.46 109.31
  C 1257.40 131.73 1257.39 143.85 1257.43 145.66
  C 1257.68 155.11 1264.45 160.40 1273.40 160.57
  C 1277.35 160.66 1280.39 160.39 1282.53 159.78
  C 1283.17 159.59 1283.60 158.98 1283.55 158.30
  L 1282.95 150.18
  C 1282.91 149.70 1282.41 149.39 1281.96 149.57
  C 1280.97 149.97 1279.81 150.20 1278.46 150.25
  C 1269.13 150.65 1269.74 144.08 1269.81 136.35
  C 1269.85 132.44 1269.86 123.32 1269.85 109.00
  C 1269.85 108.77 1270.03 108.59 1270.25 108.59
  L 1282.81 108.62
  C 1283.02 108.62 1283.20 108.45 1283.20 108.24
  L 1283.22 99.27
  C 1283.22 99.08 1283.07 98.92 1282.87 98.92
  L 1270.35 98.89
  C 1270.09 98.89 1269.88 98.68 1269.88 98.42
  L 1269.92 83.31
  C 1269.92 83.04 1269.70 82.82 1269.43 82.82
  L 1257.81 82.79
  C 1257.61 82.79 1257.45 82.95 1257.44 83.15
  L 1257.41 98.40
  C 1257.41 98.66 1257.20 98.87 1256.94 98.87
  L 1248.17 98.85
  C 1248.01 98.85 1247.87 98.98 1247.87 99.14
  L 1247.85 108.39
  C 1247.85 108.53 1247.97 108.64 1248.11 108.64"
/>
<path stroke="#9d9d9d" vector-effect="non-scaling-stroke" d="
  M 734.29 97.64
  C 715.73 98.41 704.95 112.72 705.70 130.62
  C 706.45 148.51 718.38 161.87 736.95 161.09
  C 755.51 160.31 766.28 146.01 765.53 128.11
  C 764.78 110.22 752.85 96.86 734.29 97.64"
/>
<path stroke="#9d9d9d" vector-effect="non-scaling-stroke" d="
  M 774.32 129.49
  C 774.35 142.16 779.59 153.43 791.12 158.54
  C 798.31 161.72 807.75 162.06 814.99 159.43
  C 823.66 156.28 828.85 150.05 830.56 140.73
  C 830.60 140.53 830.45 140.35 830.25 140.33
  L 819.29 139.60
  C 818.80 139.57 818.36 139.88 818.23 140.35
  C 816.42 146.50 812.41 149.98 806.20 150.80
  C 793.24 152.51 787.10 140.83 787.08 129.46
  C 787.06 118.10 793.15 106.40 806.12 108.06
  C 812.33 108.86 816.35 112.32 818.19 118.46
  C 818.32 118.93 818.77 119.24 819.25 119.21
  L 830.21 118.44
  C 830.41 118.42 830.56 118.23 830.52 118.04
  C 828.77 108.72 823.56 102.51 814.88 99.39
  C 807.63 96.79 798.19 97.17 791.01 100.37
  C 779.50 105.52 774.30 116.82 774.32 129.49"
/>
<path stroke="#9d9d9d" vector-effect="non-scaling-stroke" d="
  M 920.66 107.76
  L 920.66 99.73
  C 920.66 99.26 920.28 98.88 919.81 98.88
  L 908.89 98.88
  C 908.69 98.88 908.53 99.04 908.53 99.24
  L 908.53 159.32
  C 908.53 159.54 908.70 159.71 908.91 159.71
  L 920.59 159.71
  C 920.81 159.71 920.98 159.53 920.98 159.31
  C 921.05 143.42 921.08 132.57 921.08 126.75
  C 921.07 118.01 923.06 109.66 933.20 108.30
  C 942.65 107.04 946.37 114.54 946.41 122.75
  C 946.44 131.25 946.45 143.40 946.43 159.20
  C 946.43 159.48 946.66 159.71 946.94 159.71
  L 957.97 159.71
  C 958.33 159.71 958.62 159.42 958.62 159.06
  C 958.65 151.58 958.65 140.43 958.63 125.61
  C 958.62 119.89 959.21 115.26 963.17 111.39
  C 965.70 108.92 969.13 107.86 973.45 108.21
  C 981.08 108.83 984.13 114.99 984.16 121.77
  C 984.21 133.99 984.22 146.46 984.21 159.18
  C 984.21 159.50 984.47 159.76 984.79 159.76
  L 996.19 159.76
  C 996.38 159.76 996.54 159.60 996.54 159.40
  C 996.71 143.08 996.70 129.54 996.50 118.78
  C 996.31 108.96 991.71 100.63 981.67 98.34
  C 971.08 95.93 962.81 99.14 956.84 107.96
  C 956.62 108.30 956.11 108.26 955.93 107.90
  C 952.71 101.46 947.50 98.06 940.31 97.69
  C 931.54 97.24 925.23 100.66 921.37 107.94
  C 921.19 108.29 920.66 108.15 920.66 107.76"
/>
<path stroke="#9d9d9d" vector-effect="non-scaling-stroke" d="
  M 1066.60 132.38
  C 1067.86 115.30 1059.87 99.71 1041.62 97.79
  C 999.38 93.37 996.53 158.39 1035.01 160.91
  C 1047.79 161.75 1061.16 158.03 1065.67 144.44
  C 1065.78 144.11 1065.57 143.75 1065.22 143.69
  L 1054.38 141.70
  C 1054.11 141.65 1053.85 141.80 1053.76 142.05
  C 1052.90 144.27 1051.61 146.14 1049.88 147.65
  C 1045.14 151.81 1036.03 152.19 1030.59 149.38
  C 1024.49 146.22 1021.15 140.84 1020.57 133.24
  C 1020.55 132.98 1020.76 132.76 1021.02 132.76
  L 1066.20 132.76
  C 1066.41 132.76 1066.58 132.59 1066.60 132.38"
/>
<path stroke="#9d9d9d" vector-effect="non-scaling-stroke" d="
  M 1090.99 108.38
  C 1090.85 108.52 1090.61 108.43 1090.61 108.23
  L 1090.61 99.44
  C 1090.61 99.14 1090.37 98.89 1090.06 98.89
  L 1078.95 98.89
  C 1078.69 98.89 1078.49 99.09 1078.49 99.34
  L 1078.49 159.16
  C 1078.49 159.45 1078.73 159.69 1079.02 159.69
  L 1090.69 159.69
  C 1090.89 159.69 1091.06 159.52 1091.06 159.32
  C 1091.06 157.16 1091.05 146.63 1091.02 127.74
  C 1091.02 123.59 1091.31 120.64 1091.89 118.87
  C 1094.20 111.80 1099.02 108.30 1106.34 108.36
  C 1114.84 108.43 1119.56 114.61 1119.64 122.70
  C 1119.71 130.84 1119.71 143.00 1119.64 159.20
  C 1119.64 159.47 1119.86 159.70 1120.14 159.70
  L 1131.41 159.70
  C 1131.76 159.70 1132.05 159.41 1132.05 159.05
  C 1132.12 143.20 1132.13 131.93 1132.09 125.24
  C 1132.06 119.98 1131.86 116.50 1131.47 114.78
  C 1128.96 103.79 1121.99 98.07 1110.57 97.61
  C 1103.45 97.32 1096.66 100.07 1092.74 105.99
  C 1091.93 107.21 1091.35 108.01 1090.99 108.38"
/>
<path stroke="#9d9d9d" vector-effect="non-scaling-stroke" d="
  M 1226.62 152.38
  L 1226.62 158.71
  C 1226.62 159.28 1227.09 159.75 1227.66 159.75
  L 1238.23 159.75
  C 1238.45 159.75 1238.64 159.56 1238.63 159.33
  C 1238.45 151.75 1238.43 138.85 1238.56 120.63
  C 1238.59 116.76 1238.29 113.87 1237.68 111.98
  C 1233.00 97.59 1214.27 95.43 1202.06 99.27
  C 1194.81 101.55 1189.91 106.29 1187.38 113.48
  C 1187.21 113.97 1187.52 114.51 1188.03 114.60
  L 1198.21 116.46
  C 1198.58 116.53 1198.94 116.33 1199.08 115.98
  C 1200.49 112.38 1203.08 109.93 1206.86 108.62
  C 1214.64 105.93 1226.03 107.96 1225.98 118.24
  C 1225.96 120.87 1224.47 122.39 1221.50 122.79
  C 1218.01 123.26 1213.12 123.82 1206.81 124.47
  C 1193.15 125.88 1181.10 132.59 1185.95 148.92
  C 1190.20 163.26 1212.51 163.99 1222.42 156.09
  C 1223.88 154.93 1224.97 153.18 1225.92 152.11
  C 1226.16 151.83 1226.62 152.01 1226.62 152.38"
/>
<path stroke="#9d9d9d" vector-effect="non-scaling-stroke" d="
  M 1347.27 97.70
  C 1328.72 98.48 1317.96 112.78 1318.71 130.66
  C 1319.45 148.54 1331.38 161.89 1349.93 161.11
  C 1368.47 160.33 1379.24 146.03 1378.49 128.15
  C 1377.74 110.27 1365.82 96.92 1347.27 97.70"
/>
<path stroke="#9d9d9d" vector-effect="non-scaling-stroke" d="
  M 1402.39 108.35
  C 1402.25 108.49 1402.01 108.40 1402.01 108.20
  L 1402.01 99.39
  C 1402.01 99.09 1401.76 98.84 1401.46 98.84
  L 1390.32 98.84
  C 1390.07 98.84 1389.86 99.04 1389.86 99.29
  L 1389.86 159.24
  C 1389.86 159.53 1390.10 159.77 1390.39 159.77
  L 1402.08 159.77
  C 1402.28 159.77 1402.45 159.60 1402.45 159.40
  C 1402.46 157.23 1402.45 146.68 1402.42 127.75
  C 1402.42 123.60 1402.71 120.63 1403.29 118.86
  C 1405.61 111.78 1410.44 108.27 1417.77 108.33
  C 1426.29 108.40 1431.02 114.60 1431.10 122.70
  C 1431.17 130.86 1431.17 143.05 1431.10 159.28
  C 1431.09 159.56 1431.32 159.79 1431.60 159.79
  L 1442.89 159.79
  C 1443.25 159.79 1443.54 159.50 1443.54 159.14
  C 1443.61 143.25 1443.62 131.96 1443.58 125.25
  C 1443.55 119.98 1443.35 116.49 1442.96 114.77
  C 1440.45 103.76 1433.46 98.02 1422.01 97.56
  C 1414.88 97.27 1408.07 100.02 1404.14 105.95
  C 1403.33 107.18 1402.75 107.98 1402.39 108.35"
/>
<path stroke="#9d9d9d" vector-effect="non-scaling-stroke" d="
  M 882.17 150.29
  C 882.28 150.12 882.54 150.20 882.54 150.40
  L 882.54 159.26
  C 882.54 159.51 882.74 159.71 882.98 159.71
  L 893.70 159.71
  C 894.04 159.71 894.31 159.44 894.31 159.10
  L 894.31 99.26
  C 894.31 99.04 894.13 98.86 893.91 98.86
  L 882.40 98.86
  C 882.11 98.86 881.87 99.10 881.87 99.39
  C 881.92 111.92 881.95 123.13 881.95 133.01
  C 881.95 138.96 880.12 143.50 876.46 146.63
  C 869.42 152.64 858.24 151.10 855.00 141.75
  C 854.24 139.56 853.85 137.64 853.83 135.97
  C 853.78 130.23 853.78 118.01 853.83 99.31
  C 853.83 99.08 853.64 98.89 853.40 98.89
  L 841.86 98.89
  C 841.61 98.89 841.40 99.10 841.40 99.35
  C 841.43 111.93 841.42 123.85 841.36 135.12
  C 841.34 139.38 841.58 142.61 842.08 144.80
  C 844.67 156.15 852.83 160.93 864.01 160.81
  C 871.76 160.74 877.81 157.23 882.17 150.29"
/>
<path stroke="#9d9d9d" vector-effect="non-scaling-stroke" d="
  M 1307.16 99.27
  C 1307.16 99.03 1306.97 98.84 1306.73 98.84
  L 1295.13 98.84
  C 1294.89 98.84 1294.70 99.03 1294.70 99.27
  L 1294.70 159.27
  C 1294.70 159.51 1294.89 159.70 1295.13 159.70
  L 1306.73 159.70
  C 1306.97 159.70 1307.16 159.51 1307.16 159.27
  L 1307.16 99.27"
/>
<path stroke="#4a686a" vector-effect="non-scaling-stroke" d="
  M 130.17 161.42
  C 130.13 160.37 130.14 159.45 130.19 158.64
  C 130.28 157.35 130.30 156.42 130.26 155.86
  C 129.45 144.21 127.65 133.28 124.88 123.07
  C 120.01 105.14 110.90 89.58 96.43 77.73
  C 96.26 77.59 96.05 77.51 95.84 77.50
  C 95.72 77.49 95.62 77.49 95.54 77.50"
/>
<path stroke="#8e9eb0" vector-effect="non-scaling-stroke" d="
  M 95.54 77.50
  C 95.34 77.09 95.17 76.83 95.02 76.72
  C 81.27 66.66 64.47 61.81 47.70 60.52
  C 47.40 60.50 47.14 60.74 47.14 61.04
  L 47.14 159.87
  C 47.14 160.18 47.39 160.44 47.70 160.45
  C 77.23 161.67 108.89 172.43 130.00 193.99
  C 130.14 194.13 130.38 194.04 130.38 193.84
  L 130.17 161.42"
/>
<path stroke="#bcc9b9" vector-effect="non-scaling-stroke" d="
  M 95.54 77.50
  C 90.02 111.31 106.59 139.04 130.17 161.42"
/>
<path stroke="#8e9eb0" vector-effect="non-scaling-stroke" d="
  M 161.99 188.31
  C 161.93 188.35 161.91 188.43 161.94 188.49
  C 161.98 188.55 162.05 188.58 162.12 188.56
  C 186.70 179.80 213.45 176.79 239.39 179.42
  C 239.82 179.46 240.20 179.12 240.20 178.68
  L 240.20 78.41
  C 240.20 78.34 240.14 78.28 240.07 78.28
  L 232.19 78.28
  C 232.00 78.28 231.85 78.43 231.85 78.62
  L 231.85 169.15
  C 231.85 169.45 231.60 169.70 231.30 169.70
  C 206.32 169.63 182.56 174.48 161.99 188.31"
/>
<path stroke="#8e9eb0" vector-effect="non-scaling-stroke" d="
  M 384.57 126.20
  C 384.48 126.44 384.66 126.69 384.92 126.69
  L 405.40 126.69
  C 405.66 126.69 405.84 126.44 405.75 126.20
  L 395.51 96.71
  C 395.39 96.37 394.93 96.37 394.81 96.71
  L 384.57 126.20"
/>
<path stroke="#9d9d9d" vector-effect="non-scaling-stroke" d="
  M 639.36 88.50
  L 639.56 148.22
  C 639.57 148.57 639.85 148.85 640.21 148.85
  L 656.32 148.80
  C 670.88 148.75 682.65 136.90 682.59 122.34
  L 682.57 114.06
  C 682.51 99.51 670.67 87.75 656.10 87.80
  L 639.99 87.85
  C 639.64 87.85 639.35 88.14 639.36 88.50"
/>
<path stroke="#9d9d9d" vector-effect="non-scaling-stroke" d="
  M 735.2942 107.7016
  C 725.69 107.82 718.02 117.66 718.1713 129.6725
  C 718.32 141.69 726.22 151.34 735.8258 151.2184
  C 745.43 151.10 753.10 141.26 752.9487 129.2475
  C 752.80 117.23 744.90 107.58 735.2942 107.7016"
/>
<path stroke="#9d9d9d" vector-effect="non-scaling-stroke" d="
  M 1021.30 123.74
  L 1053.88 123.62
  C 1053.94 123.62 1054.00 123.57 1054.00 123.50
  L 1054.00 123.39
  C 1053.97 114.69 1046.64 107.67 1037.64 107.70
  L 1037.42 107.70
  C 1028.42 107.73 1021.15 114.81 1021.18 123.51
  L 1021.18 123.62
  C 1021.18 123.68 1021.23 123.74 1021.30 123.74"
/>
<path stroke="#9d9d9d" vector-effect="non-scaling-stroke" d="
  M 1225.27 130.71
  C 1221.27 131.61 1215.91 132.46 1209.20 133.26
  C 1202.34 134.08 1196.05 137.04 1197.83 144.80
  C 1199.62 152.64 1210.45 152.59 1216.41 150.38
  C 1222.53 148.11 1225.86 143.15 1225.86 136.72
  C 1225.86 136.11 1225.89 134.29 1225.94 131.25
  C 1225.95 130.90 1225.62 130.63 1225.27 130.71"
/>
<path stroke="#9d9d9d" vector-effect="non-scaling-stroke" d="
  M 1348.2781 107.6727
  C 1338.68 107.82 1331.05 117.69 1331.2421 129.7130
  C 1331.43 141.73 1339.36 151.36 1348.9619 151.2073
  C 1358.56 151.06 1366.19 141.19 1365.9979 129.1670
  C 1365.81 117.15 1357.88 107.52 1348.2781 107.6727"
/>
</g>
<path fill="#ffffff" d="
  M 1460.00 0.00
  L 1460.00 228.00
  L 0.00 228.00
  L 0.00 0.00
  L 1460.00 0.00
  Z
  M 134.82 43.44
  C 134.89 43.43 134.95 43.49 134.95 43.55
  L 138.70 92.09
  C 138.73 92.45 139.20 92.56 139.38 92.25
  C 146.76 79.74 156.35 69.27 168.14 60.84
  C 168.64 60.48 168.84 59.83 168.64 59.25
  C 162.59 41.64 149.45 25.10 135.50 11.75
  C 135.18 11.44 134.67 11.44 134.35 11.75
  C 120.41 24.94 107.74 41.08 101.45 59.19
  C 101.25 59.75 101.43 60.38 101.90 60.76
  C 108.07 65.72 111.44 68.18 115.45 72.37
  C 120.77 77.93 125.63 84.43 130.04 91.86
  C 130.38 92.44 131.26 92.23 131.30 91.56
  L 134.50 43.47
  C 134.50 43.46 134.50 43.46 134.51 43.46
  L 134.82 43.44
  Z
  M 107.81 188.13
  C 107.92 188.21 107.96 188.36 107.90 188.48
  C 107.84 188.61 107.69 188.67 107.56 188.62
  C 82.31 179.79 56.50 176.70 30.11 179.35
  C 29.81 179.38 29.55 179.15 29.55 178.85
  L 29.55 69.03
  C 29.55 68.88 29.43 68.76 29.28 68.76
  L 20.35 68.76
  C 20.26 68.76 20.18 68.84 20.18 68.94
  L 20.18 188.97
  C 20.18 189.32 20.49 189.59 20.83 189.54
  C 47.26 186.06 76.69 187.56 101.27 196.00
  C 109.51 198.83 119.31 203.50 130.66 210.01
  C 133.68 211.74 135.60 212.38 138.46 210.70
  C 154.84 201.09 171.19 194.01 190.29 190.59
  C 209.63 187.13 229.12 186.79 248.77 189.58
  C 249.13 189.63 249.45 189.36 249.45 189.00
  L 249.45 69.36
  C 249.45 69.16 249.28 68.99 249.08 68.99
  L 232.30 68.99
  C 232.02 68.99 231.79 68.76 231.79 68.48
  L 231.79 51.29
  C 231.79 51.06 231.61 50.88 231.38 50.88
  C 213.39 51.00 195.32 54.57 179.31 62.79
  C 178.65 63.13 178.31 63.88 178.50 64.59
  L 180.33 71.63
  C 180.49 72.26 181.21 72.55 181.76 72.21
  C 193.43 65.09 208.51 61.60 221.96 60.52
  C 222.28 60.49 222.55 60.75 222.55 61.07
  L 222.55 159.75
  C 222.55 160.13 222.26 160.44 221.88 160.46
  C 207.02 161.54 193.07 163.97 178.99 169.24
  C 164.26 174.76 151.25 183.02 139.98 194.03
  C 139.76 194.24 139.39 194.08 139.40 193.78
  C 139.72 180.27 139.74 168.09 139.45 157.26
  C 138.81 133.70 133.08 108.19 119.56 88.88
  C 100.91 62.25 70.07 50.56 38.19 50.94
  C 37.99 50.94 37.82 51.11 37.82 51.31
  L 37.82 169.15
  C 37.82 169.44 38.05 169.67 38.34 169.66
  C 62.45 169.33 88.02 174.54 107.81 188.13
  Z
  M 171.40 68.22
  C 168.53 69.94 165.65 72.12 162.75 74.77
  C 153.24 83.46 145.66 94.62 139.99 108.27
  C 139.17 110.24 138.94 111.81 139.29 113.00
  C 143.36 126.56 145.70 140.09 146.31 153.59
  C 146.34 154.24 147.15 154.52 147.58 154.03
  C 152.99 147.80 157.75 141.58 161.87 135.35
  C 170.87 121.74 176.71 103.99 175.19 87.50
  C 174.58 80.87 173.57 74.55 172.16 68.54
  C 172.08 68.20 171.70 68.04 171.40 68.22
  Z
  M 1293.0175 81.6041
  C 1292.84 85.75 1296.24 89.27 1300.6120 89.4628
  C 1304.99 89.65 1308.68 86.45 1308.8625 82.2959
  C 1309.04 78.15 1305.64 74.63 1301.2680 74.4372
  C 1296.89 74.25 1293.20 77.45 1293.0175 81.6041
  Z
  M 281.56 134.08
  C 282.59 153.01 297.87 160.73 314.90 160.85
  C 322.93 160.90 330.76 159.95 337.57 156.02
  C 346.83 150.67 350.52 142.39 348.65 131.18
  C 346.94 120.88 336.40 114.86 327.36 112.63
  C 318.51 110.45 313.46 109.17 312.21 108.78
  C 309.04 107.81 306.67 106.69 305.10 105.44
  C 302.06 103.03 301.70 98.62 303.89 95.46
  C 307.25 90.62 316.58 90.35 321.61 91.60
  C 326.50 92.81 329.48 95.74 330.71 100.53
  C 330.83 101.01 331.27 101.35 331.76 101.35
  L 347.26 101.35
  C 347.67 101.35 348.00 100.99 347.96 100.58
  C 346.58 86.15 336.30 78.09 322.40 76.36
  C 305.87 74.30 286.10 80.13 284.28 99.19
  C 283.02 112.32 293.25 119.83 304.39 122.90
  C 306.46 123.47 311.73 124.76 320.22 126.77
  C 322.71 127.36 324.96 128.36 326.97 129.79
  C 330.46 132.26 331.75 136.54 329.44 140.22
  C 325.79 146.01 316.52 146.57 310.56 145.16
  C 304.31 143.67 300.62 139.84 299.47 133.65
  C 299.42 133.42 299.22 133.25 298.98 133.25
  L 282.35 133.25
  C 281.90 133.25 281.54 133.63 281.56 134.08
  Z
  M 481.87 128.97
  L 498.18 128.97
  C 498.73 128.97 499.14 129.47 499.03 130.01
  C 498.32 133.62 497.00 136.61 495.09 138.96
  C 489.33 146.04 478.45 146.86 470.65 142.93
  C 463.89 139.53 459.93 132.11 458.99 124.51
  C 457.48 112.15 460.07 97.19 473.76 92.80
  C 483.56 89.66 493.55 93.61 497.42 103.40
  C 497.55 103.71 497.85 103.92 498.19 103.92
  L 515.69 103.92
  C 516.00 103.92 516.23 103.64 516.16 103.34
  C 511.96 84.08 496.00 74.88 477.25 76.09
  C 461.25 77.13 448.69 86.24 443.22 101.09
  C 439.43 111.39 439.26 124.49 442.87 134.89
  C 446.41 145.10 452.77 152.47 461.96 157.00
  C 470.35 161.15 481.50 161.84 490.35 159.83
  C 504.06 156.71 512.56 148.41 515.84 134.92
  C 517.11 129.71 516.86 122.91 516.81 116.21
  C 516.81 115.83 516.51 115.53 516.13 115.53
  L 481.75 115.53
  C 481.42 115.53 481.16 115.79 481.16 116.12
  L 481.16 128.26
  C 481.16 128.65 481.48 128.97 481.87 128.97
  Z
  M 417.29 159.29
  C 417.39 159.55 417.64 159.73 417.92 159.73
  L 436.05 159.73
  C 436.52 159.73 436.84 159.27 436.68 158.83
  L 406.79 77.57
  C 406.69 77.31 406.44 77.13 406.16 77.13
  L 383.98 77.13
  C 383.70 77.13 383.45 77.31 383.35 77.57
  L 354.17 158.84
  C 354.02 159.28 354.34 159.74 354.80 159.74
  L 372.57 159.74
  C 372.85 159.74 373.10 159.56 373.20 159.30
  L 379.61 141.45
  C 379.71 141.19 379.96 141.01 380.24 141.01
  L 410.09 141.01
  C 410.37 141.01 410.62 141.19 410.72 141.45
  L 417.29 159.29
  Z
  M 529.46 159.25
  C 529.46 159.52 529.67 159.73 529.94 159.73
  L 586.73 159.73
  C 587.00 159.73 587.21 159.52 587.21 159.25
  L 587.21 145.35
  C 587.21 145.08 587.00 144.87 586.73 144.87
  L 548.00 144.87
  C 547.73 144.87 547.52 144.66 547.52 144.39
  L 547.52 125.91
  C 547.52 125.64 547.73 125.43 548.00 125.43
  L 583.33 125.43
  C 583.60 125.43 583.81 125.22 583.81 124.95
  L 583.81 111.18
  C 583.81 110.91 583.60 110.70 583.33 110.70
  L 547.95 110.70
  C 547.68 110.70 547.47 110.49 547.47 110.22
  L 547.47 92.18
  C 547.47 91.91 547.68 91.70 547.95 91.70
  L 586.45 91.70
  C 586.72 91.70 586.93 91.49 586.93 91.22
  L 586.93 77.62
  C 586.93 77.35 586.72 77.14 586.45 77.14
  L 529.94 77.14
  C 529.67 77.14 529.46 77.35 529.46 77.62
  L 529.46 159.25
  Z
  M 626.73 77.70
  L 626.45 159.12
  C 626.45 159.44 626.71 159.70 627.03 159.70
  L 657.67 159.81
  C 678.67 159.88 695.77 142.91 695.84 121.90
  L 695.86 115.40
  C 695.93 94.39 678.96 77.30 657.95 77.23
  L 627.31 77.12
  C 626.99 77.12 626.73 77.38 626.73 77.70
  Z
  M 1141.03 108.71
  L 1149.75 108.71
  C 1150.10 108.71 1150.39 109.00 1150.39 109.35
  C 1150.38 131.78 1150.40 143.91 1150.45 145.73
  C 1150.72 155.18 1157.50 160.46 1166.46 160.61
  C 1170.41 160.68 1173.46 160.41 1175.59 159.79
  C 1176.24 159.60 1176.66 158.99 1176.61 158.31
  L 1175.99 150.19
  C 1175.95 149.70 1175.45 149.40 1175.00 149.58
  C 1174.01 149.98 1172.85 150.21 1171.50 150.27
  C 1162.16 150.69 1162.76 144.11 1162.81 136.38
  C 1162.84 132.47 1162.83 123.34 1162.78 109.01
  C 1162.78 108.78 1162.96 108.60 1163.18 108.60
  L 1175.75 108.60
  C 1175.97 108.60 1176.14 108.43 1176.14 108.22
  L 1176.14 99.25
  C 1176.14 99.06 1175.98 98.90 1175.79 98.90
  L 1163.26 98.90
  C 1163.00 98.90 1162.79 98.69 1162.79 98.43
  L 1162.79 83.31
  C 1162.79 83.04 1162.57 82.82 1162.30 82.82
  L 1150.67 82.82
  C 1150.47 82.82 1150.31 82.98 1150.31 83.18
  L 1150.31 98.44
  C 1150.31 98.70 1150.10 98.91 1149.84 98.91
  L 1141.07 98.91
  C 1140.90 98.91 1140.77 99.04 1140.77 99.20
  L 1140.77 108.46
  C 1140.77 108.60 1140.89 108.71 1141.03 108.71
  Z
  M 1248.11 108.64
  L 1256.82 108.66
  C 1257.18 108.66 1257.46 108.95 1257.46 109.31
  C 1257.40 131.73 1257.39 143.85 1257.43 145.66
  C 1257.68 155.11 1264.45 160.40 1273.40 160.57
  C 1277.35 160.66 1280.39 160.39 1282.53 159.78
  C 1283.17 159.59 1283.60 158.98 1283.55 158.30
  L 1282.95 150.18
  C 1282.91 149.70 1282.41 149.39 1281.96 149.57
  C 1280.97 149.97 1279.81 150.20 1278.46 150.25
  C 1269.13 150.65 1269.74 144.08 1269.81 136.35
  C 1269.85 132.44 1269.86 123.32 1269.85 109.00
  C 1269.85 108.77 1270.03 108.59 1270.25 108.59
  L 1282.81 108.62
  C 1283.02 108.62 1283.20 108.45 1283.20 108.24
  L 1283.22 99.27
  C 1283.22 99.08 1283.07 98.92 1282.87 98.92
  L 1270.35 98.89
  C 1270.09 98.89 1269.88 98.68 1269.88 98.42
  L 1269.92 83.31
  C 1269.92 83.04 1269.70 82.82 1269.43 82.82
  L 1257.81 82.79
  C 1257.61 82.79 1257.45 82.95 1257.44 83.15
  L 1257.41 98.40
  C 1257.41 98.66 1257.20 98.87 1256.94 98.87
  L 1248.17 98.85
  C 1248.01 98.85 1247.87 98.98 1247.87 99.14
  L 1247.85 108.39
  C 1247.85 108.53 1247.97 108.64 1248.11 108.64
  Z
  M 734.29 97.64
  C 715.73 98.41 704.95 112.72 705.70 130.62
  C 706.45 148.51 718.38 161.87 736.95 161.09
  C 755.51 160.31 766.28 146.01 765.53 128.11
  C 764.78 110.22 752.85 96.86 734.29 97.64
  Z
  M 774.32 129.49
  C 774.35 142.16 779.59 153.43 791.12 158.54
  C 798.31 161.72 807.75 162.06 814.99 159.43
  C 823.66 156.28 828.85 150.05 830.56 140.73
  C 830.60 140.53 830.45 140.35 830.25 140.33
  L 819.29 139.60
  C 818.80 139.57 818.36 139.88 818.23 140.35
  C 816.42 146.50 812.41 149.98 806.20 150.80
  C 793.24 152.51 787.10 140.83 787.08 129.46
  C 787.06 118.10 793.15 106.40 806.12 108.06
  C 812.33 108.86 816.35 112.32 818.19 118.46
  C 818.32 118.93 818.77 119.24 819.25 119.21
  L 830.21 118.44
  C 830.41 118.42 830.56 118.23 830.52 118.04
  C 828.77 108.72 823.56 102.51 814.88 99.39
  C 807.63 96.79 798.19 97.17 791.01 100.37
  C 779.50 105.52 774.30 116.82 774.32 129.49
  Z
  M 920.66 107.76
  L 920.66 99.73
  C 920.66 99.26 920.28 98.88 919.81 98.88
  L 908.89 98.88
  C 908.69 98.88 908.53 99.04 908.53 99.24
  L 908.53 159.32
  C 908.53 159.54 908.70 159.71 908.91 159.71
  L 920.59 159.71
  C 920.81 159.71 920.98 159.53 920.98 159.31
  C 921.05 143.42 921.08 132.57 921.08 126.75
  C 921.07 118.01 923.06 109.66 933.20 108.30
  C 942.65 107.04 946.37 114.54 946.41 122.75
  C 946.44 131.25 946.45 143.40 946.43 159.20
  C 946.43 159.48 946.66 159.71 946.94 159.71
  L 957.97 159.71
  C 958.33 159.71 958.62 159.42 958.62 159.06
  C 958.65 151.58 958.65 140.43 958.63 125.61
  C 958.62 119.89 959.21 115.26 963.17 111.39
  C 965.70 108.92 969.13 107.86 973.45 108.21
  C 981.08 108.83 984.13 114.99 984.16 121.77
  C 984.21 133.99 984.22 146.46 984.21 159.18
  C 984.21 159.50 984.47 159.76 984.79 159.76
  L 996.19 159.76
  C 996.38 159.76 996.54 159.60 996.54 159.40
  C 996.71 143.08 996.70 129.54 996.50 118.78
  C 996.31 108.96 991.71 100.63 981.67 98.34
  C 971.08 95.93 962.81 99.14 956.84 107.96
  C 956.62 108.30 956.11 108.26 955.93 107.90
  C 952.71 101.46 947.50 98.06 940.31 97.69
  C 931.54 97.24 925.23 100.66 921.37 107.94
  C 921.19 108.29 920.66 108.15 920.66 107.76
  Z
  M 1066.60 132.38
  C 1067.86 115.30 1059.87 99.71 1041.62 97.79
  C 999.38 93.37 996.53 158.39 1035.01 160.91
  C 1047.79 161.75 1061.16 158.03 1065.67 144.44
  C 1065.78 144.11 1065.57 143.75 1065.22 143.69
  L 1054.38 141.70
  C 1054.11 141.65 1053.85 141.80 1053.76 142.05
  C 1052.90 144.27 1051.61 146.14 1049.88 147.65
  C 1045.14 151.81 1036.03 152.19 1030.59 149.38
  C 1024.49 146.22 1021.15 140.84 1020.57 133.24
  C 1020.55 132.98 1020.76 132.76 1021.02 132.76
  L 1066.20 132.76
  C 1066.41 132.76 1066.58 132.59 1066.60 132.38
  Z
  M 1090.99 108.38
  C 1090.85 108.52 1090.61 108.43 1090.61 108.23
  L 1090.61 99.44
  C 1090.61 99.14 1090.37 98.89 1090.06 98.89
  L 1078.95 98.89
  C 1078.69 98.89 1078.49 99.09 1078.49 99.34
  L 1078.49 159.16
  C 1078.49 159.45 1078.73 159.69 1079.02 159.69
  L 1090.69 159.69
  C 1090.89 159.69 1091.06 159.52 1091.06 159.32
  C 1091.06 157.16 1091.05 146.63 1091.02 127.74
  C 1091.02 123.59 1091.31 120.64 1091.89 118.87
  C 1094.20 111.80 1099.02 108.30 1106.34 108.36
  C 1114.84 108.43 1119.56 114.61 1119.64 122.70
  C 1119.71 130.84 1119.71 143.00 1119.64 159.20
  C 1119.64 159.47 1119.86 159.70 1120.14 159.70
  L 1131.41 159.70
  C 1131.76 159.70 1132.05 159.41 1132.05 159.05
  C 1132.12 143.20 1132.13 131.93 1132.09 125.24
  C 1132.06 119.98 1131.86 116.50 1131.47 114.78
  C 1128.96 103.79 1121.99 98.07 1110.57 97.61
  C 1103.45 97.32 1096.66 100.07 1092.74 105.99
  C 1091.93 107.21 1091.35 108.01 1090.99 108.38
  Z
  M 1226.62 152.38
  L 1226.62 158.71
  C 1226.62 159.28 1227.09 159.75 1227.66 159.75
  L 1238.23 159.75
  C 1238.45 159.75 1238.64 159.56 1238.63 159.33
  C 1238.45 151.75 1238.43 138.85 1238.56 120.63
  C 1238.59 116.76 1238.29 113.87 1237.68 111.98
  C 1233.00 97.59 1214.27 95.43 1202.06 99.27
  C 1194.81 101.55 1189.91 106.29 1187.38 113.48
  C 1187.21 113.97 1187.52 114.51 1188.03 114.60
  L 1198.21 116.46
  C 1198.58 116.53 1198.94 116.33 1199.08 115.98
  C 1200.49 112.38 1203.08 109.93 1206.86 108.62
  C 1214.64 105.93 1226.03 107.96 1225.98 118.24
  C 1225.96 120.87 1224.47 122.39 1221.50 122.79
  C 1218.01 123.26 1213.12 123.82 1206.81 124.47
  C 1193.15 125.88 1181.10 132.59 1185.95 148.92
  C 1190.20 163.26 1212.51 163.99 1222.42 156.09
  C 1223.88 154.93 1224.97 153.18 1225.92 152.11
  C 1226.16 151.83 1226.62 152.01 1226.62 152.38
  Z
  M 1347.27 97.70
  C 1328.72 98.48 1317.96 112.78 1318.71 130.66
  C 1319.45 148.54 1331.38 161.89 1349.93 161.11
  C 1368.47 160.33 1379.24 146.03 1378.49 128.15
  C 1377.74 110.27 1365.82 96.92 1347.27 97.70
  Z
  M 1402.39 108.35
  C 1402.25 108.49 1402.01 108.40 1402.01 108.20
  L 1402.01 99.39
  C 1402.01 99.09 1401.76 98.84 1401.46 98.84
  L 1390.32 98.84
  C 1390.07 98.84 1389.86 99.04 1389.86 99.29
  L 1389.86 159.24
  C 1389.86 159.53 1390.10 159.77 1390.39 159.77
  L 1402.08 159.77
  C 1402.28 159.77 1402.45 159.60 1402.45 159.40
  C 1402.46 157.23 1402.45 146.68 1402.42 127.75
  C 1402.42 123.60 1402.71 120.63 1403.29 118.86
  C 1405.61 111.78 1410.44 108.27 1417.77 108.33
  C 1426.29 108.40 1431.02 114.60 1431.10 122.70
  C 1431.17 130.86 1431.17 143.05 1431.10 159.28
  C 1431.09 159.56 1431.32 159.79 1431.60 159.79
  L 1442.89 159.79
  C 1443.25 159.79 1443.54 159.50 1443.54 159.14
  C 1443.61 143.25 1443.62 131.96 1443.58 125.25
  C 1443.55 119.98 1443.35 116.49 1442.96 114.77
  C 1440.45 103.76 1433.46 98.02 1422.01 97.56
  C 1414.88 97.27 1408.07 100.02 1404.14 105.95
  C 1403.33 107.18 1402.75 107.98 1402.39 108.35
  Z
  M 882.17 150.29
  C 882.28 150.12 882.54 150.20 882.54 150.40
  L 882.54 159.26
  C 882.54 159.51 882.74 159.71 882.98 159.71
  L 893.70 159.71
  C 894.04 159.71 894.31 159.44 894.31 159.10
  L 894.31 99.26
  C 894.31 99.04 894.13 98.86 893.91 98.86
  L 882.40 98.86
  C 882.11 98.86 881.87 99.10 881.87 99.39
  C 881.92 111.92 881.95 123.13 881.95 133.01
  C 881.95 138.96 880.12 143.50 876.46 146.63
  C 869.42 152.64 858.24 151.10 855.00 141.75
  C 854.24 139.56 853.85 137.64 853.83 135.97
  C 853.78 130.23 853.78 118.01 853.83 99.31
  C 853.83 99.08 853.64 98.89 853.40 98.89
  L 841.86 98.89
  C 841.61 98.89 841.40 99.10 841.40 99.35
  C 841.43 111.93 841.42 123.85 841.36 135.12
  C 841.34 139.38 841.58 142.61 842.08 144.80
  C 844.67 156.15 852.83 160.93 864.01 160.81
  C 871.76 160.74 877.81 157.23 882.17 150.29
  Z
  M 1307.16 99.27
  C 1307.16 99.03 1306.97 98.84 1306.73 98.84
  L 1295.13 98.84
  C 1294.89 98.84 1294.70 99.03 1294.70 99.27
  L 1294.70 159.27
  C 1294.70 159.51 1294.89 159.70 1295.13 159.70
  L 1306.73 159.70
  C 1306.97 159.70 1307.16 159.51 1307.16 159.27
  L 1307.16 99.27
  Z"
/>
<path fill="#789273" d="
  M 134.50 43.47
  L 131.30 91.56
  C 131.26 92.23 130.38 92.44 130.04 91.86
  C 125.63 84.43 120.77 77.93 115.45 72.37
  C 111.44 68.18 108.07 65.72 101.90 60.76
  C 101.43 60.38 101.25 59.75 101.45 59.19
  C 107.74 41.08 120.41 24.94 134.35 11.75
  C 134.67 11.44 135.18 11.44 135.50 11.75
  C 149.45 25.10 162.59 41.64 168.64 59.25
  C 168.84 59.83 168.64 60.48 168.14 60.84
  C 156.35 69.27 146.76 79.74 139.38 92.25
  C 139.20 92.56 138.73 92.45 138.70 92.09
  L 134.95 43.55
  C 134.95 43.49 134.89 43.43 134.82 43.44
  L 134.51 43.46
  C 134.50 43.46 134.50 43.46 134.50 43.47
  Z"
/>
<path fill="#1c3d60" d="
  M 107.81 188.13
  C 88.02 174.54 62.45 169.33 38.34 169.66
  C 38.05 169.67 37.82 169.44 37.82 169.15
  L 37.82 51.31
  C 37.82 51.11 37.99 50.94 38.19 50.94
  C 70.07 50.56 100.91 62.25 119.56 88.88
  C 133.08 108.19 138.81 133.70 139.45 157.26
  C 139.74 168.09 139.72 180.27 139.40 193.78
  C 139.39 194.08 139.76 194.24 139.98 194.03
  C 151.25 183.02 164.26 174.76 178.99 169.24
  C 193.07 163.97 207.02 161.54 221.88 160.46
  C 222.26 160.44 222.55 160.13 222.55 159.75
  L 222.55 61.07
  C 222.55 60.75 222.28 60.49 221.96 60.52
  C 208.51 61.60 193.43 65.09 181.76 72.21
  C 181.21 72.55 180.49 72.26 180.33 71.63
  L 178.50 64.59
  C 178.31 63.88 178.65 63.13 179.31 62.79
  C 195.32 54.57 213.39 51.00 231.38 50.88
  C 231.61 50.88 231.79 51.06 231.79 51.29
  L 231.79 68.48
  C 231.79 68.76 232.02 68.99 232.30 68.99
  L 249.08 68.99
  C 249.28 68.99 249.45 69.16 249.45 69.36
  L 249.45 189.00
  C 249.45 189.36 249.13 189.63 248.77 189.58
  C 229.12 186.79 209.63 187.13 190.29 190.59
  C 171.19 194.01 154.84 201.09 138.46 210.70
  C 135.60 212.38 133.68 211.74 130.66 210.01
  C 119.31 203.50 109.51 198.83 101.27 196.00
  C 76.69 187.56 47.26 186.06 20.83 189.54
  C 20.49 189.59 20.18 189.32 20.18 188.97
  L 20.18 68.94
  C 20.18 68.84 20.26 68.76 20.35 68.76
  L 29.28 68.76
  C 29.43 68.76 29.55 68.88 29.55 69.03
  L 29.55 178.85
  C 29.55 179.15 29.81 179.38 30.11 179.35
  C 56.50 176.70 82.31 179.79 107.56 188.62
  C 107.69 188.67 107.84 188.61 107.90 188.48
  C 107.96 188.36 107.92 188.21 107.81 188.13
  Z
  M 130.17 161.42
  C 130.13 160.37 130.14 159.45 130.19 158.64
  C 130.28 157.35 130.30 156.42 130.26 155.86
  C 129.45 144.21 127.65 133.28 124.88 123.07
  C 120.01 105.14 110.90 89.58 96.43 77.73
  C 96.26 77.59 96.05 77.51 95.84 77.50
  C 95.72 77.49 95.62 77.49 95.54 77.50
  C 95.34 77.09 95.17 76.83 95.02 76.72
  C 81.27 66.66 64.47 61.81 47.70 60.52
  C 47.40 60.50 47.14 60.74 47.14 61.04
  L 47.14 159.87
  C 47.14 160.18 47.39 160.44 47.70 160.45
  C 77.23 161.67 108.89 172.43 130.00 193.99
  C 130.14 194.13 130.38 194.04 130.38 193.84
  L 130.17 161.42
  Z
  M 161.99 188.31
  C 161.93 188.35 161.91 188.43 161.94 188.49
  C 161.98 188.55 162.05 188.58 162.12 188.56
  C 186.70 179.80 213.45 176.79 239.39 179.42
  C 239.82 179.46 240.20 179.12 240.20 178.68
  L 240.20 78.41
  C 240.20 78.34 240.14 78.28 240.07 78.28
  L 232.19 78.28
  C 232.00 78.28 231.85 78.43 231.85 78.62
  L 231.85 169.15
  C 231.85 169.45 231.60 169.70 231.30 169.70
  C 206.32 169.63 182.56 174.48 161.99 188.31
  Z"
/>
<path fill="#ffffff" d="
  M 95.54 77.50
  C 90.02 111.31 106.59 139.04 130.17 161.42
  L 130.38 193.84
  C 130.38 194.04 130.14 194.13 130.00 193.99
  C 108.89 172.43 77.23 161.67 47.70 160.45
  C 47.39 160.44 47.14 160.18 47.14 159.87
  L 47.14 61.04
  C 47.14 60.74 47.40 60.50 47.70 60.52
  C 64.47 61.81 81.27 66.66 95.02 76.72
  C 95.17 76.83 95.34 77.09 95.54 77.50
  Z"
/>
<path fill="#789273" d="
  M 171.40 68.22
  C 171.70 68.04 172.08 68.20 172.16 68.54
  C 173.57 74.55 174.58 80.87 175.19 87.50
  C 176.71 103.99 170.87 121.74 161.87 135.35
  C 157.75 141.58 152.99 147.80 147.58 154.03
  C 147.15 154.52 146.34 154.24 146.31 153.59
  C 145.70 140.09 143.36 126.56 139.29 113.00
  C 138.94 111.81 139.17 110.24 139.99 108.27
  C 145.66 94.62 153.24 83.46 162.75 74.77
  C 165.65 72.12 168.53 69.94 171.40 68.22
  Z"
/>
<ellipse fill="#3a3a3a" cx="0.00" cy="0.00" transform="translate(1300.94,81.95) rotate(-177.5)" rx="7.93" ry="7.52"/>
<path fill="#1c3d60" d="
  M 282.35 133.25
  L 298.98 133.25
  C 299.22 133.25 299.42 133.42 299.47 133.65
  C 300.62 139.84 304.31 143.67 310.56 145.16
  C 316.52 146.57 325.79 146.01 329.44 140.22
  C 331.75 136.54 330.46 132.26 326.97 129.79
  C 324.96 128.36 322.71 127.36 320.22 126.77
  C 311.73 124.76 306.46 123.47 304.39 122.90
  C 293.25 119.83 283.02 112.32 284.28 99.19
  C 286.10 80.13 305.87 74.30 322.40 76.36
  C 336.30 78.09 346.58 86.15 347.96 100.58
  C 348.00 100.99 347.67 101.35 347.26 101.35
  L 331.76 101.35
  C 331.27 101.35 330.83 101.01 330.71 100.53
  C 329.48 95.74 326.50 92.81 321.61 91.60
  C 316.58 90.35 307.25 90.62 303.89 95.46
  C 301.70 98.62 302.06 103.03 305.10 105.44
  C 306.67 106.69 309.04 107.81 312.21 108.78
  C 313.46 109.17 318.51 110.45 327.36 112.63
  C 336.40 114.86 346.94 120.88 348.65 131.18
  C 350.52 142.39 346.83 150.67 337.57 156.02
  C 330.76 159.95 322.93 160.90 314.90 160.85
  C 297.87 160.73 282.59 153.01 281.56 134.08
  C 281.54 133.63 281.90 133.25 282.35 133.25
  Z"
/>
<path fill="#1c3d60" d="
  M 481.87 128.97
  C 481.48 128.97 481.16 128.65 481.16 128.26
  L 481.16 116.12
  C 481.16 115.79 481.42 115.53 481.75 115.53
  L 516.13 115.53
  C 516.51 115.53 516.81 115.83 516.81 116.21
  C 516.86 122.91 517.11 129.71 515.84 134.92
  C 512.56 148.41 504.06 156.71 490.35 159.83
  C 481.50 161.84 470.35 161.15 461.96 157.00
  C 452.77 152.47 446.41 145.10 442.87 134.89
  C 439.26 124.49 439.43 111.39 443.22 101.09
  C 448.69 86.24 461.25 77.13 477.25 76.09
  C 496.00 74.88 511.96 84.08 516.16 103.34
  C 516.23 103.64 516.00 103.92 515.69 103.92
  L 498.19 103.92
  C 497.85 103.92 497.55 103.71 497.42 103.40
  C 493.55 93.61 483.56 89.66 473.76 92.80
  C 460.07 97.19 457.48 112.15 458.99 124.51
  C 459.93 132.11 463.89 139.53 470.65 142.93
  C 478.45 146.86 489.33 146.04 495.09 138.96
  C 497.00 136.61 498.32 133.62 499.03 130.01
  C 499.14 129.47 498.73 128.97 498.18 128.97
  L 481.87 128.97
  Z"
/>
<path fill="#1c3d60" d="
  M 417.29 159.29
  L 410.72 141.45
  C 410.62 141.19 410.37 141.01 410.09 141.01
  L 380.24 141.01
  C 379.96 141.01 379.71 141.19 379.61 141.45
  L 373.20 159.30
  C 373.10 159.56 372.85 159.74 372.57 159.74
  L 354.80 159.74
  C 354.34 159.74 354.02 159.28 354.17 158.84
  L 383.35 77.57
  C 383.45 77.31 383.70 77.13 383.98 77.13
  L 406.16 77.13
  C 406.44 77.13 406.69 77.31 406.79 77.57
  L 436.68 158.83
  C 436.84 159.27 436.52 159.73 436.05 159.73
  L 417.92 159.73
  C 417.64 159.73 417.39 159.55 417.29 159.29
  Z
  M 384.57 126.20
  C 384.48 126.44 384.66 126.69 384.92 126.69
  L 405.40 126.69
  C 405.66 126.69 405.84 126.44 405.75 126.20
  L 395.51 96.71
  C 395.39 96.37 394.93 96.37 394.81 96.71
  L 384.57 126.20
  Z"
/>
<path fill="#1c3d60" d="
  M 529.46 159.25
  L 529.46 77.62
  C 529.46 77.35 529.67 77.14 529.94 77.14
  L 586.45 77.14
  C 586.72 77.14 586.93 77.35 586.93 77.62
  L 586.93 91.22
  C 586.93 91.49 586.72 91.70 586.45 91.70
  L 547.95 91.70
  C 547.68 91.70 547.47 91.91 547.47 92.18
  L 547.47 110.22
  C 547.47 110.49 547.68 110.70 547.95 110.70
  L 583.33 110.70
  C 583.60 110.70 583.81 110.91 583.81 111.18
  L 583.81 124.95
  C 583.81 125.22 583.60 125.43 583.33 125.43
  L 548.00 125.43
  C 547.73 125.43 547.52 125.64 547.52 125.91
  L 547.52 144.39
  C 547.52 144.66 547.73 144.87 548.00 144.87
  L 586.73 144.87
  C 587.00 144.87 587.21 145.08 587.21 145.35
  L 587.21 159.25
  C 587.21 159.52 587.00 159.73 586.73 159.73
  L 529.94 159.73
  C 529.67 159.73 529.46 159.52 529.46 159.25
  Z"
/>
<path fill="#3a3a3a" d="
  M 626.73 77.70
  C 626.73 77.38 626.99 77.12 627.31 77.12
  L 657.95 77.23
  C 678.96 77.30 695.93 94.39 695.86 115.40
  L 695.84 121.90
  C 695.77 142.91 678.67 159.88 657.67 159.81
  L 627.03 159.70
  C 626.71 159.70 626.45 159.44 626.45 159.12
  L 626.73 77.70
  Z
  M 639.36 88.50
  L 639.56 148.22
  C 639.57 148.57 639.85 148.85 640.21 148.85
  L 656.32 148.80
  C 670.88 148.75 682.65 136.90 682.59 122.34
  L 682.57 114.06
  C 682.51 99.51 670.67 87.75 656.10 87.80
  L 639.99 87.85
  C 639.64 87.85 639.35 88.14 639.36 88.50
  Z"
/>
<path fill="#789273" d="
  M 130.17 161.42
  C 106.59 139.04 90.02 111.31 95.54 77.50
  C 95.62 77.49 95.72 77.49 95.84 77.50
  C 96.05 77.51 96.26 77.59 96.43 77.73
  C 110.90 89.58 120.01 105.14 124.88 123.07
  C 127.65 133.28 129.45 144.21 130.26 155.86
  C 130.30 156.42 130.28 157.35 130.19 158.64
  C 130.14 159.45 130.13 160.37 130.17 161.42
  Z"
/>
<path fill="#ffffff" d="
  M 161.99 188.31
  C 182.56 174.48 206.32 169.63 231.30 169.70
  C 231.60 169.70 231.85 169.45 231.85 169.15
  L 231.85 78.62
  C 231.85 78.43 232.00 78.28 232.19 78.28
  L 240.07 78.28
  C 240.14 78.28 240.20 78.34 240.20 78.41
  L 240.20 178.68
  C 240.20 179.12 239.82 179.46 239.39 179.42
  C 213.45 176.79 186.70 179.80 162.12 188.56
  C 162.05 188.58 161.98 188.55 161.94 188.49
  C 161.91 188.43 161.93 188.35 161.99 188.31
  Z"
/>
<path fill="#3a3a3a" d="
  M 1141.03 108.71
  C 1140.89 108.71 1140.77 108.60 1140.77 108.46
  L 1140.77 99.20
  C 1140.77 99.04 1140.90 98.91 1141.07 98.91
  L 1149.84 98.91
  C 1150.10 98.91 1150.31 98.70 1150.31 98.44
  L 1150.31 83.18
  C 1150.31 82.98 1150.47 82.82 1150.67 82.82
  L 1162.30 82.82
  C 1162.57 82.82 1162.79 83.04 1162.79 83.31
  L 1162.79 98.43
  C 1162.79 98.69 1163.00 98.90 1163.26 98.90
  L 1175.79 98.90
  C 1175.98 98.90 1176.14 99.06 1176.14 99.25
  L 1176.14 108.22
  C 1176.14 108.43 1175.97 108.60 1175.75 108.60
  L 1163.18 108.60
  C 1162.96 108.60 1162.78 108.78 1162.78 109.01
  C 1162.83 123.34 1162.84 132.47 1162.81 136.38
  C 1162.76 144.11 1162.16 150.69 1171.50 150.27
  C 1172.85 150.21 1174.01 149.98 1175.00 149.58
  C 1175.45 149.40 1175.95 149.70 1175.99 150.19
  L 1176.61 158.31
  C 1176.66 158.99 1176.24 159.60 1175.59 159.79
  C 1173.46 160.41 1170.41 160.68 1166.46 160.61
  C 1157.50 160.46 1150.72 155.18 1150.45 145.73
  C 1150.40 143.91 1150.38 131.78 1150.39 109.35
  C 1150.39 109.00 1150.10 108.71 1149.75 108.71
  L 1141.03 108.71
  Z"
/>
<path fill="#3a3a3a" d="
  M 1248.11 108.64
  C 1247.97 108.64 1247.85 108.53 1247.85 108.39
  L 1247.87 99.14
  C 1247.87 98.98 1248.01 98.85 1248.17 98.85
  L 1256.94 98.87
  C 1257.20 98.87 1257.41 98.66 1257.41 98.40
  L 1257.44 83.15
  C 1257.45 82.95 1257.61 82.79 1257.81 82.79
  L 1269.43 82.82
  C 1269.70 82.82 1269.92 83.04 1269.92 83.31
  L 1269.88 98.42
  C 1269.88 98.68 1270.09 98.89 1270.35 98.89
  L 1282.87 98.92
  C 1283.07 98.92 1283.22 99.08 1283.22 99.27
  L 1283.20 108.24
  C 1283.20 108.45 1283.02 108.62 1282.81 108.62
  L 1270.25 108.59
  C 1270.03 108.59 1269.85 108.77 1269.85 109.00
  C 1269.86 123.32 1269.85 132.44 1269.81 136.35
  C 1269.74 144.08 1269.13 150.65 1278.46 150.25
  C 1279.81 150.20 1280.97 149.97 1281.96 149.57
  C 1282.41 149.39 1282.91 149.70 1282.95 150.18
  L 1283.55 158.30
  C 1283.60 158.98 1283.17 159.59 1282.53 159.78
  C 1280.39 160.39 1277.35 160.66 1273.40 160.57
  C 1264.45 160.40 1257.68 155.11 1257.43 145.66
  C 1257.39 143.85 1257.40 131.73 1257.46 109.31
  C 1257.46 108.95 1257.18 108.66 1256.82 108.66
  L 1248.11 108.64
  Z"
/>
<path fill="#ffffff" d="
  M 639.36 88.50
  C 639.35 88.14 639.64 87.85 639.99 87.85
  L 656.10 87.80
  C 670.67 87.75 682.51 99.51 682.57 114.06
  L 682.59 122.34
  C 682.65 136.90 670.88 148.75 656.32 148.80
  L 640.21 148.85
  C 639.85 148.85 639.57 148.57 639.56 148.22
  L 639.36 88.50
  Z"
/>
<path fill="#ffffff" d="
  M 384.57 126.20
  L 394.81 96.71
  C 394.93 96.37 395.39 96.37 395.51 96.71
  L 405.75 126.20
  C 405.84 126.44 405.66 126.69 405.40 126.69
  L 384.92 126.69
  C 384.66 126.69 384.48 126.44 384.57 126.20
  Z"
/>
<path fill="#3a3a3a" d="
  M 765.53 128.11
  C 766.28 146.01 755.51 160.31 736.95 161.09
  C 718.38 161.87 706.45 148.51 705.70 130.62
  C 704.95 112.72 715.73 98.41 734.29 97.64
  C 752.85 96.86 764.78 110.22 765.53 128.11
  Z
  M 735.2942 107.7016
  C 725.69 107.82 718.02 117.66 718.1713 129.6725
  C 718.32 141.69 726.22 151.34 735.8258 151.2184
  C 745.43 151.10 753.10 141.26 752.9487 129.2475
  C 752.80 117.23 744.90 107.58 735.2942 107.7016
  Z"
/>
<path fill="#3a3a3a" d="
  M 787.08 129.46
  C 787.10 140.83 793.24 152.51 806.20 150.80
  C 812.41 149.98 816.42 146.50 818.23 140.35
  C 818.36 139.88 818.80 139.57 819.29 139.60
  L 830.25 140.33
  C 830.45 140.35 830.60 140.53 830.56 140.73
  C 828.85 150.05 823.66 156.28 814.99 159.43
  C 807.75 162.06 798.31 161.72 791.12 158.54
  C 779.59 153.43 774.35 142.16 774.32 129.49
  C 774.30 116.82 779.50 105.52 791.01 100.37
  C 798.19 97.17 807.63 96.79 814.88 99.39
  C 823.56 102.51 828.77 108.72 830.52 118.04
  C 830.56 118.23 830.41 118.42 830.21 118.44
  L 819.25 119.21
  C 818.77 119.24 818.32 118.93 818.19 118.46
  C 816.35 112.32 812.33 108.86 806.12 108.06
  C 793.15 106.40 787.06 118.10 787.08 129.46
  Z"
/>
<path fill="#3a3a3a" d="
  M 920.66 107.76
  C 920.66 108.15 921.19 108.29 921.37 107.94
  C 925.23 100.66 931.54 97.24 940.31 97.69
  C 947.50 98.06 952.71 101.46 955.93 107.90
  C 956.11 108.26 956.62 108.30 956.84 107.96
  C 962.81 99.14 971.08 95.93 981.67 98.34
  C 991.71 100.63 996.31 108.96 996.50 118.78
  C 996.70 129.54 996.71 143.08 996.54 159.40
  C 996.54 159.60 996.38 159.76 996.19 159.76
  L 984.79 159.76
  C 984.47 159.76 984.21 159.50 984.21 159.18
  C 984.22 146.46 984.21 133.99 984.16 121.77
  C 984.13 114.99 981.08 108.83 973.45 108.21
  C 969.13 107.86 965.70 108.92 963.17 111.39
  C 959.21 115.26 958.62 119.89 958.63 125.61
  C 958.65 140.43 958.65 151.58 958.62 159.06
  C 958.62 159.42 958.33 159.71 957.97 159.71
  L 946.94 159.71
  C 946.66 159.71 946.43 159.48 946.43 159.20
  C 946.45 143.40 946.44 131.25 946.41 122.75
  C 946.37 114.54 942.65 107.04 933.20 108.30
  C 923.06 109.66 921.07 118.01 921.08 126.75
  C 921.08 132.57 921.05 143.42 920.98 159.31
  C 920.98 159.53 920.81 159.71 920.59 159.71
  L 908.91 159.71
  C 908.70 159.71 908.53 159.54 908.53 159.32
  L 908.53 99.24
  C 908.53 99.04 908.69 98.88 908.89 98.88
  L 919.81 98.88
  C 920.28 98.88 920.66 99.26 920.66 99.73
  L 920.66 107.76
  Z"
/>
<path fill="#3a3a3a" d="
  M 1066.60 132.38
  C 1066.58 132.59 1066.41 132.76 1066.20 132.76
  L 1021.02 132.76
  C 1020.76 132.76 1020.55 132.98 1020.57 133.24
  C 1021.15 140.84 1024.49 146.22 1030.59 149.38
  C 1036.03 152.19 1045.14 151.81 1049.88 147.65
  C 1051.61 146.14 1052.90 144.27 1053.76 142.05
  C 1053.85 141.80 1054.11 141.65 1054.38 141.70
  L 1065.22 143.69
  C 1065.57 143.75 1065.78 144.11 1065.67 144.44
  C 1061.16 158.03 1047.79 161.75 1035.01 160.91
  C 996.53 158.39 999.38 93.37 1041.62 97.79
  C 1059.87 99.71 1067.86 115.30 1066.60 132.38
  Z
  M 1021.30 123.74
  L 1053.88 123.62
  C 1053.94 123.62 1054.00 123.57 1054.00 123.50
  L 1054.00 123.39
  C 1053.97 114.69 1046.64 107.67 1037.64 107.70
  L 1037.42 107.70
  C 1028.42 107.73 1021.15 114.81 1021.18 123.51
  L 1021.18 123.62
  C 1021.18 123.68 1021.23 123.74 1021.30 123.74
  Z"
/>
<path fill="#3a3a3a" d="
  M 1090.99 108.38
  C 1091.35 108.01 1091.93 107.21 1092.74 105.99
  C 1096.66 100.07 1103.45 97.32 1110.57 97.61
  C 1121.99 98.07 1128.96 103.79 1131.47 114.78
  C 1131.86 116.50 1132.06 119.98 1132.09 125.24
  C 1132.13 131.93 1132.12 143.20 1132.05 159.05
  C 1132.05 159.41 1131.76 159.70 1131.41 159.70
  L 1120.14 159.70
  C 1119.86 159.70 1119.64 159.47 1119.64 159.20
  C 1119.71 143.00 1119.71 130.84 1119.64 122.70
  C 1119.56 114.61 1114.84 108.43 1106.34 108.36
  C 1099.02 108.30 1094.20 111.80 1091.89 118.87
  C 1091.31 120.64 1091.02 123.59 1091.02 127.74
  C 1091.05 146.63 1091.06 157.16 1091.06 159.32
  C 1091.06 159.52 1090.89 159.69 1090.69 159.69
  L 1079.02 159.69
  C 1078.73 159.69 1078.49 159.45 1078.49 159.16
  L 1078.49 99.34
  C 1078.49 99.09 1078.69 98.89 1078.95 98.89
  L 1090.06 98.89
  C 1090.37 98.89 1090.61 99.14 1090.61 99.44
  L 1090.61 108.23
  C 1090.61 108.43 1090.85 108.52 1090.99 108.38
  Z"
/>
<path fill="#3a3a3a" d="
  M 1225.92 152.11
  C 1224.97 153.18 1223.88 154.93 1222.42 156.09
  C 1212.51 163.99 1190.20 163.26 1185.95 148.92
  C 1181.10 132.59 1193.15 125.88 1206.81 124.47
  C 1213.12 123.82 1218.01 123.26 1221.50 122.79
  C 1224.47 122.39 1225.96 120.87 1225.98 118.24
  C 1226.03 107.96 1214.64 105.93 1206.86 108.62
  C 1203.08 109.93 1200.49 112.38 1199.08 115.98
  C 1198.94 116.33 1198.58 116.53 1198.21 116.46
  L 1188.03 114.60
  C 1187.52 114.51 1187.21 113.97 1187.38 113.48
  C 1189.91 106.29 1194.81 101.55 1202.06 99.27
  C 1214.27 95.43 1233.00 97.59 1237.68 111.98
  C 1238.29 113.87 1238.59 116.76 1238.56 120.63
  C 1238.43 138.85 1238.45 151.75 1238.63 159.33
  C 1238.64 159.56 1238.45 159.75 1238.23 159.75
  L 1227.66 159.75
  C 1227.09 159.75 1226.62 159.28 1226.62 158.71
  L 1226.62 152.38
  C 1226.62 152.01 1226.16 151.83 1225.92 152.11
  Z
  M 1225.27 130.71
  C 1221.27 131.61 1215.91 132.46 1209.20 133.26
  C 1202.34 134.08 1196.05 137.04 1197.83 144.80
  C 1199.62 152.64 1210.45 152.59 1216.41 150.38
  C 1222.53 148.11 1225.86 143.15 1225.86 136.72
  C 1225.86 136.11 1225.89 134.29 1225.94 131.25
  C 1225.95 130.90 1225.62 130.63 1225.27 130.71
  Z"
/>
<path fill="#3a3a3a" d="
  M 1347.27 97.70
  C 1365.82 96.92 1377.74 110.27 1378.49 128.15
  C 1379.24 146.03 1368.47 160.33 1349.93 161.11
  C 1331.38 161.89 1319.45 148.54 1318.71 130.66
  C 1317.96 112.78 1328.72 98.48 1347.27 97.70
  Z
  M 1348.2781 107.6727
  C 1338.68 107.82 1331.05 117.69 1331.2421 129.7130
  C 1331.43 141.73 1339.36 151.36 1348.9619 151.2073
  C 1358.56 151.06 1366.19 141.19 1365.9979 129.1670
  C 1365.81 117.15 1357.88 107.52 1348.2781 107.6727
  Z"
/>
<path fill="#3a3a3a" d="
  M 1402.39 108.35
  C 1402.75 107.98 1403.33 107.18 1404.14 105.95
  C 1408.07 100.02 1414.88 97.27 1422.01 97.56
  C 1433.46 98.02 1440.45 103.76 1442.96 114.77
  C 1443.35 116.49 1443.55 119.98 1443.58 125.25
  C 1443.62 131.96 1443.61 143.25 1443.54 159.14
  C 1443.54 159.50 1443.25 159.79 1442.89 159.79
  L 1431.60 159.79
  C 1431.32 159.79 1431.09 159.56 1431.10 159.28
  C 1431.17 143.05 1431.17 130.86 1431.10 122.70
  C 1431.02 114.60 1426.29 108.40 1417.77 108.33
  C 1410.44 108.27 1405.61 111.78 1403.29 118.86
  C 1402.71 120.63 1402.42 123.60 1402.42 127.75
  C 1402.45 146.68 1402.46 157.23 1402.45 159.40
  C 1402.45 159.60 1402.28 159.77 1402.08 159.77
  L 1390.39 159.77
  C 1390.10 159.77 1389.86 159.53 1389.86 159.24
  L 1389.86 99.29
  C 1389.86 99.04 1390.07 98.84 1390.32 98.84
  L 1401.46 98.84
  C 1401.76 98.84 1402.01 99.09 1402.01 99.39
  L 1402.01 108.20
  C 1402.01 108.40 1402.25 108.49 1402.39 108.35
  Z"
/>
<path fill="#3a3a3a" d="
  M 882.17 150.29
  C 877.81 157.23 871.76 160.74 864.01 160.81
  C 852.83 160.93 844.67 156.15 842.08 144.80
  C 841.58 142.61 841.34 139.38 841.36 135.12
  C 841.42 123.85 841.43 111.93 841.40 99.35
  C 841.40 99.10 841.61 98.89 841.86 98.89
  L 853.40 98.89
  C 853.64 98.89 853.83 99.08 853.83 99.31
  C 853.78 118.01 853.78 130.23 853.83 135.97
  C 853.85 137.64 854.24 139.56 855.00 141.75
  C 858.24 151.10 869.42 152.64 876.46 146.63
  C 880.12 143.50 881.95 138.96 881.95 133.01
  C 881.95 123.13 881.92 111.92 881.87 99.39
  C 881.87 99.10 882.11 98.86 882.40 98.86
  L 893.91 98.86
  C 894.13 98.86 894.31 99.04 894.31 99.26
  L 894.31 159.10
  C 894.31 159.44 894.04 159.71 893.70 159.71
  L 882.98 159.71
  C 882.74 159.71 882.54 159.51 882.54 159.26
  L 882.54 150.40
  C 882.54 150.20 882.28 150.12 882.17 150.29
  Z"
/>
<rect fill="#3a3a3a" x="1294.70" y="98.84" width="12.46" height="60.86" rx="0.43"/>
<path fill="#ffffff" d="
  M 1021.30 123.74
  C 1021.23 123.74 1021.18 123.68 1021.18 123.62
  L 1021.18 123.51
  C 1021.15 114.81 1028.42 107.73 1037.42 107.70
  L 1037.64 107.70
  C 1046.64 107.67 1053.97 114.69 1054.00 123.39
  L 1054.00 123.50
  C 1054.00 123.57 1053.94 123.62 1053.88 123.62
  L 1021.30 123.74
  Z"
/>
<ellipse fill="#ffffff" cx="0.00" cy="0.00" transform="translate(1348.62,129.44) rotate(-90.9)" rx="21.77" ry="17.38"/>
<ellipse fill="#ffffff" cx="0.00" cy="0.00" transform="translate(735.56,129.46) rotate(-90.7)" rx="21.76" ry="17.39"/>
<path fill="#ffffff" d="
  M 1225.94 131.25
  C 1225.89 134.29 1225.86 136.11 1225.86 136.72
  C 1225.86 143.15 1222.53 148.11 1216.41 150.38
  C 1210.45 152.59 1199.62 152.64 1197.83 144.80
  C 1196.05 137.04 1202.34 134.08 1209.20 133.26
  C 1215.91 132.46 1221.27 131.61 1225.27 130.71
  C 1225.62 130.63 1225.95 130.90 1225.94 131.25
  Z"
/>
</svg>
